# xmcd
#
# Track frame offsets: 
#        150
#        15159
#        24479
#        44518
#        55781
#        77593
#        89671
#        105107
#        117246
#        146013
#        160292
#
# Disc length: 2333 seconds
#
# Revision: 0
# Processed by: cddbd v1.4PL0 Copyright (c) Steve Scherf et al.
# Submitted via: ExactAudioCopy v0.90a11
#
DISCID=7e091b0b
DTITLE=Roy Buchanan - Dancing On the Edge
DYEAR=1900
DGENRE=
TTITLE0=Peter Gunn
TTITLE1=The Chokin' Kind
TTITLE2=Jungle Gym
TTITLE3=Drownin' on Dry Land
TTITLE4=Petal to the Metal
TTITLE5=You Don't Judge a Book by the Cover
TTITLE6=Cream of the Crop
TTITLE7=Beer Drinkin' Woman
TTITLE8=Whiplash
TTITLE9=Baby Baby Baby
TTITLE10=Matthew
EXTD=
EXTT0=
EXTT1=
EXTT2=
EXTT3=
EXTT4=
EXTT5=
EXTT6=
EXTT7=
EXTT8=
EXTT9=
EXTT10=
PLAYORDER=
